<svg xmlns="http://www.w3.org/2000/svg" fill="none" viewBox="0 0 32 32"><path fill="#00599C" d="M27.7 23c.2-.3.3-.7.3-1V10a2 2 0 0 0-.3-1L16 16l11.7 7Z"/><path fill="#004482" d="m17 29.7 10-5.9.7-.8L16 16 4.3 23l.7.8 10 6c.5.3 1.5.3 2 0Z"/><path fill="#659AD2" d="m27.7 9-.7-.8-10-6c-.5-.3-1.5-.3-2 0l-10 6c-.5.3-1 1.2-1 1.9v11.8c0 .4.1.8.3 1.1L16 16l11.7-7Z"/><path fill="#fff" d="M16 24a8 8 0 0 1-8-8 8 8 0 0 1 15-4.1l-3.5 2a4 4 0 0 0-7.5 2 4 4 0 0 0 7.5 2.2l3.4 2A8 8 0 0 1 16 24Z"/><path fill="#fff" d="M23 15.5h-1v-1h-1v1h-1v1h1v1h1v-1h1v-1Zm4 0h-1v-1h-1v1h-1v1h1v1h1v-1h1v-1Z"/></svg>