<svg xmlns="http://www.w3.org/2000/svg" preserveAspectRatio="xMidYMid" viewBox="0 0 256 288"><path fill="#A179DC" d="M256 84c0-4-1-9-4-12-2-4-5-7-9-9L141 4c-9-5-18-5-27 0L12 63C4 67 0 75 0 84v119c0 5 1 9 3 12 2 4 5 7 9 10l102 58c9 5 18 6 27 0l102-58c4-3 8-6 10-10 2-3 3-7 3-12V84"/><path fill="#280068" d="M128 143 3 215c2 4 5 7 9 10l102 58c9 5 18 6 27 0l102-58c4-3 8-6 10-10l-125-72"/><path fill="#390091" d="M256 84c0-4-1-9-4-12l-124 71 125 72c2-3 3-7 3-12V84"/><path fill="#FFF" d="M202 116v14h13v-14h7v14h14v7h-14v13h14v7h-14v13h-7v-13h-13v13h-7v-13h-13v-7h13v-13h-13v-7h13v-14h7Zm13 21h-13v13h13v-13Z"/><path fill="#FFF" d="M128 49c36 0 66 19 83 47l-42 24c-8-14-23-23-40-24h-1a47 47 0 1 0 42 71h-1l42 24a95 95 0 0 1-81 48h-2a95 95 0 1 1 0-190Z"/></svg>