<svg xmlns="http://www.w3.org/2000/svg" viewBox="-64 -64 576 576"><path fill="#1984ff" d="m463 37-30 51-7-3c-27-8-72-7-98 1l-7 2-28-49c-34 69-33 118-15 149 18 33 57 49 99 48 49-1 89-20 107-54 17-32 16-81-21-145zM324 138c18 0 29 15 31 36-37 18-54 4-61-26 12-7 22-10 30-10zm109 0c9 0 19 3 30 10-7 30-24 44-61 26 2-21 13-36 31-36zm-293 51h-4c-30 0-56 10-76 26-43 36-57 101-13 166 21 34 45 55 71 65 33 12 67 8 100 4 33-5 66-11 97-9s62 10 91 41c19 22 46-1 23-24-35-34-72-47-109-50-37-2-72 5-104 9-32 5-60 7-85-2-14-6-28-15-41-31h351c14-53 15-107 2-142-19 8-42 12-66 13-30 0-59-7-83-23l-14 10-6 4-5-5c-47-37-91-52-129-52z"/></svg>