<svg xmlns="http://www.w3.org/2000/svg" preserveAspectRatio="xMidYMid" viewBox="-53 0 361 361"><path fill="#264DE4" d="M128 360 24 331 0 71h256l-24 260-104 29Z"/><path fill="#2965F1" d="m212 315 20-223H128v246l84-23Z"/><path fill="#EBEBEB" d="m54 189 3 32h71v-32H54Zm-6-65 3 32h77v-32H48Zm80 148-36-10-2-25H58l4 50 66 18v-33Z"/><path fill="#FFF" d="M60 0h39v16H77v16h22v17H60V0Zm47 0h39v14h-23v3h23v32h-39V34h22v-2h-22V0Zm46 0h39v14h-23v3h23v32h-39V34h23v-2h-23V0Z"/><path fill="#FFF" d="m202 189 6-65h-80v32h45l-3 33h-42v32h39l-3 41-36 10v33l65-18 1-6 7-84 1-8Z"/></svg>