<svg xmlns="http://www.w3.org/2000/svg" preserveAspectRatio="xMidYMid" viewBox="0 -160 512 512"><path fill="#00ACD7" d="m293 13 1 1c13 9 22 21 29 35 1 2 0 4-3 4l-5 2-32 8-6 2c-3 0-3 0-6-3-4-4-6-7-11-9l-1-1c-15-7-31-5-45 4a53 53 0 0 0-25 48c0 19 14 36 33 39 17 2 32-4 43-17l6-9h-48c-5 0-6-3-4-7v-3l12-24 1-1c0-2 2-4 6-4h80c3-11 9-22 17-32 18-24 40-36 70-42 25-4 49-2 71 13 20 13 32 32 35 56 4 33-5 61-29 84-16 17-36 27-59 32l-20 2c-23 0-44-7-61-22a78 78 0 0 1-25-38l-11 16c-18 24-41 39-71 43-24 3-47-2-67-17a78 78 0 0 1-31-55c-4-27 4-52 21-73 17-23 41-38 70-43 23-4 45-2 65 11Zm118 36h-1c-23 5-38 20-43 44-5 19 5 39 23 47 13 6 27 5 40-2 20-10 31-26 32-47l-1-9c-4-24-26-38-50-33ZM116 95l2 1-1 6-1 2H61v-2l3-6 3-1h49Zm6-23 1 1-2 6-2 2H1l-1-1 5-7 3-1h114Zm13-23 1 1-5 7-2 1H39l-1-1 5-7 3-1h89Z"/></svg>