<svg xmlns="http://www.w3.org/2000/svg" fill="none" viewBox="0 0 32 32"><path fill="#E76F00" d="M16 8.4c6.6-5 3.3-8.4 3.3-8.4.5 5.3-5.5 6.5-7 10.2-1.2 2.4.7 4.6 3.7 7.4-.2-.7-.6-1.2-1-1.8-1.5-2-3-4.2 1-7.4Z"/><path fill="#E76F00" d="M17.1 18.7s2-1.6.4-3.4c-5.3-6 5.8-8.8 5.8-8.8-6.8 3.3-5.8 5.3-4 7.6 1.8 2.6-2.2 4.6-2.2 4.6Z"/><path fill="#5382A1" d="M23 23.4c6-3 3.2-6 1.2-5.7l-.6.2s.1-.3.5-.4c3.9-1.3 6.9 4-1.3 6.1l.1-.2Zm-12.8-3.9c-3.8-.5 2.1-1.9 2.1-1.9s-2.3-.1-5 1.2c-3.4 1.6 8.2 2.3 14.2.8.6-.5 1.5-.8 1.5-.8l-5 .6c-3 .3-6.2.3-7.8.1Zm1.5 3c-2.1-.2-.7-1.3-.7-1.3-5.6 1.8 3 3.9 10.7 1.7-.8-.3-1.3-.8-1.3-.8-3.8.7-6 .7-8.7.4Zm.9 3.2c-2.1-.2-.9-1-.9-1-5 1.4 3 4.3 9.4 1.6-1-.4-1.7-.9-1.7-.9a19 19 0 0 1-6.8.3Z"/><path fill="#5382A1" d="M26 27.3s.9.8-1 1.4a46.7 46.7 0 0 1-18.6 0c-1.2-.5 1-1.2 1.7-1.3.7-.2 1.1-.1 1.1-.1C8 26.3 1 29 5.6 29.8c13 2 23.7-1 20.3-2.5Z"/><path fill="#5382A1" d="M28 29c-.2 2.7-9.2 3.3-15 2.9-3.9-.2-4.7-.8-4.7-.9 3.7.6 9.9.7 14.9-.2C27.6 30 28 29 28 29Z"/></svg>