<svg xmlns="http://www.w3.org/2000/svg" viewBox="0 0 32 32"><defs><radialGradient id="a" cx="-492" cy="-883.4" r="14" gradientTransform="matrix(.866 -.5 -.3 -.52 177.1 -689)" gradientUnits="userSpaceOnUse"><stop offset="0" stop-color="#7d7d7d"/><stop offset=".3" stop-color="#7e7c7a"/><stop offset=".5" stop-color="#817871"/><stop offset=".6" stop-color="#867162"/><stop offset=".8" stop-color="#8d684c"/><stop offset=".9" stop-color="#965c30"/><stop offset="1" stop-color="#a04f12"/></radialGradient></defs><path fill="url(#a)" d="M15.1 5.3a.8.8 0 1 1 .9.8.8.8 0 0 1-.9-.8m-9.9 7.5a.8.8 0 1 1 .8.9.8.8 0 0 1-.8-.9m19.9 0a.8.8 0 1 1 .8.9.8.8 0 0 1-.8-.8M7.6 14a.8.8 0 0 0 .4-1l-.4-.8h1.5v6.5H6a10.2 10.2 0 0 1-.3-3.9Zm6 .2v-2h3.5c.2 0 1.3.3 1.3 1s-.8 1-1.5 1ZM9 24.6a.8.8 0 1 1 .8.8.8.8 0 0 1-.8-.8m12.3 0a.8.8 0 1 1 .8.8.8.8 0 0 1-.8-.8m.2-1.9a.8.8 0 0 0-.9.6l-.4 2a10.2 10.2 0 0 1-8.5 0l-.4-2a.8.8 0 0 0-1-.6l-1.7.3a10.2 10.2 0 0 1-.8-1H16l.2-.1v-3h-2.6v-2h2.6a1.7 1.7 0 0 1 1.7 1.5c0 .4.3 1.7.5 2.1.1.5.8 1.5 1.4 1.5h4.4a10.2 10.2 0 0 1-1 1Zm4.7-7.8a10.3 10.3 0 0 1 0 1.8h-1l-.2.1v.5c0 1.2-.6 1.4-1.2 1.5-.5 0-1.1-.3-1.2-.6a3.6 3.6 0 0 0-1.7-2.8c1-.6 2.1-1.6 2.1-2.9a3.3 3.3 0 0 0-1.6-2.7 4.6 4.6 0 0 0-2.2-.7H8.4A10.2 10.2 0 0 1 14 5.8l1.3 1.4a.8.8 0 0 0 1 0L18 5.8a10.2 10.2 0 0 1 7 5l-1 2.3a.8.8 0 0 0 .4 1Zm2.4 0v-.3l1-1a.4.4 0 0 0 0-.6.4.4 0 0 0-.1 0l-1.3-.5-.1-.4.8-1a.4.4 0 0 0-.1-.7.4.4 0 0 0-.2 0l-1.3-.2-.2-.3.6-1.3a.4.4 0 0 0-.2-.5.4.4 0 0 0-.2 0H26l-.2-.3.3-1.3a.4.4 0 0 0-.3-.5.4.4 0 0 0-.2 0l-1.3.3-.3-.2V4.7a.4.4 0 0 0-.4-.4.4.4 0 0 0-.1 0L22 5l-.3-.2-.2-1.3a.4.4 0 0 0-.5-.4.4.4 0 0 0-.1.1l-1.1.8h-.4L19 2.4a.4.4 0 0 0-.5-.2.4.4 0 0 0-.1 0l-1 1h-.3l-.8-1.1a.4.4 0 0 0-.6 0l-.8 1.2h-.3l-1-1a.4.4 0 0 0-.5 0 .4.4 0 0 0-.1.1l-.5 1.3-.3.1L11 3a.4.4 0 0 0-.6.1.4.4 0 0 0 0 .2l-.2 1.3-.3.2-1.3-.6a.4.4 0 0 0-.5.3.4.4 0 0 0 0 .1V6l-.3.2L6.5 6a.4.4 0 0 0-.5.3.4.4 0 0 0 0 .2l.3 1.3-.2.3H4.7a.4.4 0 0 0-.4.5L5 10l-.2.3-1.3.2a.4.4 0 0 0-.4.5.4.4 0 0 0 .1.1l.8 1.1v.4l-1.4.5a.4.4 0 0 0-.2.5.4.4 0 0 0 0 .1l1 1v.3l-1.1.8a.4.4 0 0 0 0 .6l1.2.8v.3l-1 1a.4.4 0 0 0 0 .6.4.4 0 0 0 .1 0l1.3.5.1.3-.8 1.2a.4.4 0 0 0 .1.6.4.4 0 0 0 .2 0l1.3.2.2.3-.6 1.3a.4.4 0 0 0 .3.5.4.4 0 0 0 .1 0h1.4l.2.3-.3 1.3a.4.4 0 0 0 .3.5.4.4 0 0 0 .2 0l1.3-.3.3.2v1.4a.4.4 0 0 0 .4.4.4.4 0 0 0 .1 0L10 27l.3.2.2 1.3a.4.4 0 0 0 .5.4.4.4 0 0 0 .1-.1l1.1-.8h.4l.5 1.4a.4.4 0 0 0 .5.2.4.4 0 0 0 .1 0l1-1h.3l.8 1.1a.4.4 0 0 0 .5.1.4.4 0 0 0 .1 0l.8-1.3h.3l1 1a.4.4 0 0 0 .5 0 .4.4 0 0 0 .1-.1l.5-1.3.3-.1 1.2.8a.4.4 0 0 0 .5-.1.4.4 0 0 0 .1-.2l.2-1.3.3-.2 1.3.6a.4.4 0 0 0 .5-.3.4.4 0 0 0 0-.1v-1.4l.3-.2 1.3.3a.4.4 0 0 0 .5-.3.4.4 0 0 0 0-.2l-.3-1.3.2-.3h1.4a.4.4 0 0 0 .4-.4.4.4 0 0 0 0-.1L27 22l.2-.3 1.3-.2a.4.4 0 0 0 .4-.5.4.4 0 0 0-.1-.1l-.8-1.1v-.4l1.4-.5a.4.4 0 0 0 .2-.5.4.4 0 0 0 0-.1l-1-1V17l1.1-.8a.4.4 0 0 0 0-.6Z"/></svg>