<svg xmlns="http://www.w3.org/2000/svg" preserveAspectRatio="xMidYMid" viewBox="-26 0 308 308"><path fill="#FF3E00" d="M240 41a94 94 0 0 0-126-27L42 59a82 82 0 0 0-37 55c-3 19 0 39 9 56-6 9-11 20-13 31-4 23 2 47 15 66 29 41 85 53 126 27l72-46a82 82 0 0 0 28-110c6-10 11-20 13-31 4-23-2-47-15-66"/><path fill="#FFF" d="M107 271c-23 6-48-3-61-23a53 53 0 0 1-8-46l2-4 4 2c8 6 17 11 28 14l2 1v3c0 3 1 7 3 10 4 6 11 9 18 7l5-2 71-45c4-3 6-6 7-10 1-5 0-9-3-12-4-6-11-9-18-7l-4 2-28 17-14 7c-23 6-48-4-61-23-9-12-12-26-9-40 2-14 10-26 22-33l72-46a57 57 0 0 1 76 16 53 53 0 0 1 7 47l-2 4-4-3c-8-6-17-11-28-14h-2v-3c0-4-1-8-3-11-4-6-11-8-18-7l-5 2-71 46c-4 2-6 6-7 10s0 9 3 12c4 6 11 9 18 7l4-2 28-17 14-7c23-6 48 3 61 23 9 11 12 26 9 40-2 13-10 25-22 33l-72 45-14 7"/></svg>